<?xml version="1.0" encoding="UTF-8"?>
<svg version="1.1" xmlns="http://www.w3.org/2000/svg" width="831" height="663">
<path d="M0 0 C274.23 0 548.46 0 831 0 C831 218.79 831 437.58 831 663 C556.77 663 282.54 663 0 663 C0 444.21 0 225.42 0 0 Z " fill="#211E1F" transform="translate(0,0)"/>
<path d="M0 0 C2.15544963 -0.0095279 4.3098699 -0.04044328 6.46508789 -0.07226562 C18.16172628 -0.16094812 28.82072619 1.77325746 40.02172852 5.24023438 C40.02172852 5.90023437 40.02172852 6.56023437 40.02172852 7.24023438 C41.22829102 7.36398438 41.22829102 7.36398438 42.45922852 7.49023438 C56.82307045 10.5142011 70.20469359 20.82573234 81.02172852 30.24023438 C81.70364258 30.77777344 82.38555664 31.3153125 83.08813477 31.86914062 C102.08000576 47.17773967 115.97337498 74.90177011 118.8269043 98.92626953 C120.16469262 114.81543962 119.40282844 130.66331781 116.02172852 146.24023438 C115.82836914 147.17222656 115.63500977 148.10421875 115.43579102 149.06445312 C113.54387685 156.49697307 109.78750471 163.55740192 106.08398438 170.24316406 C104.97188282 172.24778083 104.97188282 172.24778083 104.11767578 174.49511719 C102.97913758 176.95338033 102.08933278 178.47448241 100.02172852 180.24023438 C95.55252822 181.23279109 91.25860085 180.99474472 86.70922852 180.74023438 C85.49170898 180.70414063 84.27418945 180.66804687 83.01977539 180.63085938 C80.01722599 180.53666175 77.02108213 180.40526071 74.02172852 180.24023438 C81.34896412 174.53063671 89.8682162 172.63000022 99.02172852 173.24023438 C98.73297852 172.325 98.44422852 171.40976562 98.14672852 170.46679688 C97.58985352 168.68402344 97.58985352 168.68402344 97.02172852 166.86523438 C96.46485352 165.09019531 96.46485352 165.09019531 95.89672852 163.27929688 C95.02172852 160.24023438 95.02172852 160.24023438 95.02172852 158.24023438 C83.14172852 159.23023438 83.14172852 159.23023438 71.02172852 160.24023438 C76.80386639 155.90363097 82.86482692 154.15778586 90.02172852 153.24023438 C88.55364344 148.39555362 86.07746315 144.299374 82.02172852 141.24023438 C78.35507776 140.39584876 74.88448281 140.57229017 71.14672852 140.80273438 C70.17219727 140.83431641 69.19766602 140.86589844 68.19360352 140.8984375 C65.79983874 140.98057649 63.41237684 141.09531764 61.02172852 141.24023438 C62.02172852 139.24023438 62.02172852 139.24023438 63.91235352 138.38867188 C71.73242034 135.82514004 71.73242034 135.82514004 76.02172852 136.24023438 C73.22538928 131.48167177 70.32570508 128.62794486 65.58422852 125.74023438 C64.97313232 125.35786621 64.36203613 124.97549805 63.73242188 124.58154297 C57.7460932 120.9181408 51.47736328 117.98200976 45.02172852 115.24023438 C43.91313477 114.75167969 42.80454102 114.263125 41.66235352 113.75976562 C37.72221311 112.11522204 33.74440105 110.69170531 29.70922852 109.30273438 C24.2312386 107.39343497 18.79878004 105.43520301 13.43969727 103.20898438 C11.7103996 102.51614783 9.95965149 101.8759258 8.19750977 101.27148438 C1.09603752 98.77661332 -5.31932496 95.58477126 -11.85327148 91.86523438 C-12.64983154 91.41913818 -13.4463916 90.97304199 -14.26708984 90.51342773 C-19.89768478 87.22670004 -25.98032484 83.23612766 -28.97827148 77.24023438 C-29.55938529 70.150646 -29.55938529 70.150646 -27.10327148 66.30273438 C-24.12753193 63.41451658 -23.37633245 63.26591573 -19.10327148 62.99023438 C-16.35379971 63.03522573 -15.01151614 63.22444316 -12.47827148 64.42773438 C-10.97827148 66.24023438 -10.97827148 66.24023438 -10.35327148 68.67773438 C-10.97827148 71.24023438 -10.97827148 71.24023438 -13.91577148 73.42773438 C-14.92639648 74.02585937 -15.93702148 74.62398438 -16.97827148 75.24023438 C-17.30827148 75.90023437 -17.63827148 76.56023437 -17.97827148 77.24023438 C-16.15295898 76.74523437 -16.15295898 76.74523437 -14.29077148 76.24023438 C-11.10616544 75.43701225 -8.28098719 75.03381464 -4.97827148 75.24023438 C-4.97827148 76.23023438 -4.97827148 77.22023438 -4.97827148 78.24023438 C-3.12202148 78.02367187 -3.12202148 78.02367187 -1.22827148 77.80273438 C8.82181187 76.69652831 18.84771609 75.97094808 28.95922852 75.80273438 C29.97049805 75.76857422 30.98176758 75.73441406 32.02368164 75.69921875 C39.95203065 75.65116815 39.95203065 75.65116815 43.52563477 78.39257812 C46.00585015 81.22211961 47.57300965 83.77940598 49.02172852 87.24023438 C56.92600271 77.53356037 60.23365708 69.6777918 60.02172852 57.24023438 C58.88735352 57.046875 57.75297852 56.85351562 56.58422852 56.65429688 C55.0633682 56.39143213 53.54253638 56.12840246 52.02172852 55.86523438 C51.27793945 55.73890625 50.53415039 55.61257812 49.76782227 55.48242188 C46.0705095 54.83941096 42.44051263 54.11920015 38.81079102 53.16210938 C35.55348164 52.36960936 32.7259332 51.99290299 29.39672852 51.86523438 C24.60580822 51.48647923 21.68952087 50.5318429 18.02172852 47.24023438 C17.31412414 45.92816796 16.63901814 44.59713369 16.02172852 43.24023438 C21.41968841 44.39081993 26.73160184 45.66445196 32.02172852 47.24023438 C29.53557225 40.49209595 26.37006141 37.31453254 20.19360352 33.65039062 C14.97832328 31.33177466 9.67422536 30.68057197 4.02172852 30.24023438 C4.02172852 29.58023438 4.02172852 28.92023438 4.02172852 28.24023438 C3.32047852 28.21960938 2.61922852 28.19898438 1.89672852 28.17773438 C-3.09955307 26.54851212 -5.73992877 22.32290166 -8.35327148 17.92773438 C-9.33132036 13.72212422 -9.12845355 9.53711001 -8.97827148 5.24023438 C-15.08895182 10.01556414 -19.19139062 13.87370688 -20.36889648 21.90429688 C-20.63066518 24.34976759 -20.83502414 26.78527123 -20.97827148 29.24023438 C-25.85327148 28.36523438 -25.85327148 28.36523438 -26.97827148 27.24023438 C-39.08161173 25.86339085 -50.66503416 26.18188401 -60.97827148 33.24023438 C-61.47327148 34.23023438 -61.47327148 34.23023438 -61.97827148 35.24023438 C-55.70827148 35.24023438 -49.43827148 35.24023438 -42.97827148 35.24023438 C-42.97827148 36.23023438 -42.97827148 37.22023437 -42.97827148 38.24023438 C-43.65631836 38.35238281 -44.33436523 38.46453125 -45.03295898 38.58007812 C-53.26330254 40.3241814 -58.40728474 43.98326792 -63.97827148 50.24023438 C-65.02444059 51.87831495 -66.03997398 53.53806647 -66.97827148 55.24023438 C-65.98827148 54.58023438 -64.99827148 53.92023438 -63.97827148 53.24023438 C-61.71655273 52.82617188 -61.71655273 52.82617188 -59.29077148 52.61523438 C-58.4825293 52.54046875 -57.67428711 52.46570313 -56.84155273 52.38867188 C-56.22666992 52.3396875 -55.61178711 52.29070312 -54.97827148 52.24023438 C-57.22515457 54.65169807 -59.58520474 56.39691328 -62.35327148 58.17773438 C-63.14991211 58.70625 -63.94655273 59.23476562 -64.76733398 59.77929688 C-66.42026911 60.87151903 -68.07405433 61.96245488 -69.72827148 63.05273438 C-74.09449604 67.29767491 -77.22971288 72.42739006 -77.54077148 78.61523438 C-77.15618972 85.23470232 -74.63037568 91.76207808 -70.97827148 97.24023438 C-70.59735352 95.74169922 -70.59735352 95.74169922 -70.20874023 94.21289062 C-69.86174876 92.90932807 -69.51405609 91.60595203 -69.16577148 90.30273438 C-69.00012695 89.64337891 -68.83448242 88.98402344 -68.66381836 88.3046875 C-68.14624023 86.40039062 -68.14624023 86.40039062 -66.97827148 83.24023438 C-65.98827148 82.91023438 -64.99827148 82.58023438 -63.97827148 82.24023438 C-63.75913086 83.07425781 -63.53999023 83.90828125 -63.31420898 84.76757812 C-57.35159185 105.92759747 -42.91556066 114.22867074 -24.78491211 124.62353516 C-5.31747852 135.8372917 13.51216373 146.71154001 21.02172852 169.24023438 C21.11306925 170.62464966 21.15238448 172.01296706 21.15454102 173.40039062 C21.15583008 174.19380859 21.15711914 174.98722656 21.15844727 175.8046875 C21.15458008 176.62904297 21.15071289 177.45339844 21.14672852 178.30273438 C21.1505957 179.13095703 21.15446289 179.95917969 21.15844727 180.8125 C21.15651367 182.00069336 21.15651367 182.00069336 21.15454102 183.21289062 C21.15284912 184.29969116 21.15284912 184.29969116 21.15112305 185.40844727 C21.02172852 187.24023438 21.02172852 187.24023438 20.02172852 189.24023438 C22.00172852 189.24023438 23.98172852 189.24023438 26.02172852 189.24023438 C22.96055283 191.86409925 22.28999725 192.24023438 18.02172852 192.24023438 C17.73297852 193.02398437 17.44422852 193.80773437 17.14672852 194.61523438 C16.02172852 197.24023438 16.02172852 197.24023438 14.02172852 199.24023438 C16.00172852 199.57023438 17.98172852 199.90023437 20.02172852 200.24023438 C17.69986891 202.56209398 16.34835572 202.81515698 13.20922852 203.61523438 C9.00413838 204.8045528 6.25323605 206.21069606 3.02172852 209.24023438 C2.36172852 209.57023438 1.70172852 209.90023437 1.02172852 210.24023438 C5.64172852 210.57023438 10.26172852 210.90023437 15.02172852 211.24023438 C14.69172852 211.90023437 14.36172852 212.56023437 14.02172852 213.24023438 C0.21069187 217.67612541 -15.59101334 216.4027459 -28.97827148 211.24023438 C-30.73204102 210.58667969 -30.73204102 210.58667969 -32.52124023 209.91992188 C-45.05086163 204.91900429 -55.38331485 197.6689006 -64.97827148 188.24023438 C-65.64987305 187.58152344 -66.32147461 186.9228125 -67.01342773 186.24414062 C-72.97990185 179.948307 -76.09176092 173.19867605 -76.54077148 164.49023438 C-76.40926057 160.77636621 -75.94871506 158.52441959 -73.60327148 155.61523438 C-69.68078005 152.06631355 -67.46173041 152.01838121 -62.36108398 152.08398438 C-57.25815369 152.41860276 -52.71764858 153.65043236 -48.97827148 157.24023438 C-48.97827148 159.24023438 -48.97827148 159.24023438 -50.91577148 161.24023438 C-51.93670898 162.23023438 -51.93670898 162.23023438 -52.97827148 163.24023438 C-53.30827148 163.90023437 -53.63827148 164.56023437 -53.97827148 165.24023438 C-52.80264648 165.57023438 -51.62702148 165.90023437 -50.41577148 166.24023438 C-43.1768108 168.61841857 -36.61656179 172.55812605 -29.97827148 176.24023438 C-30.6822298 172.90107259 -31.42101609 169.57051372 -32.16577148 166.24023438 C-32.36235352 165.30566406 -32.55893555 164.37109375 -32.76147461 163.40820312 C-34.41596848 156.12843009 -36.55426117 149.52290792 -42.97827148 145.24023438 C-43.96827148 148.21023438 -43.96827148 148.21023438 -44.97827148 151.24023438 C-46.61022461 150.48226562 -46.61022461 150.48226562 -48.27514648 149.70898438 C-57.55858306 145.5435707 -66.10658167 141.77627875 -76.34936523 144.98242188 C-81.34275117 147.19966848 -84.51448101 150.31265343 -86.97827148 155.24023438 C-87.85098303 165.6878383 -87.03931358 173.84500197 -81.97827148 183.24023438 C-81.34405273 184.49707031 -81.34405273 184.49707031 -80.69702148 185.77929688 C-70.89312127 203.73411412 -52.89222082 216.09124073 -33.60327148 222.11523438 C-32.06582609 222.5071818 -30.52421421 222.88327191 -28.97827148 223.24023438 C-28.27702148 223.44261719 -27.57577148 223.645 -26.85327148 223.85351562 C-13.62318812 227.22994315 1.48885963 226.5172318 14.02172852 221.24023438 C14.91118164 220.88960937 15.80063477 220.53898438 16.71704102 220.17773438 C27.94585312 215.23293638 34.61878181 206.49919811 39.02172852 195.24023438 C42.05052968 183.57098816 40.34412381 170.95488926 34.47875977 160.48632812 C20.55572268 139.61770275 -3.47219463 129.04724728 -24.92749023 117.59570312 C-34.99059655 112.17312641 -48.03781938 104.73321969 -51.97827148 93.24023438 C-52.13381702 90.54929663 -52.06827832 87.94043931 -51.97827148 85.24023438 C-51.31827148 85.24023438 -50.65827148 85.24023438 -49.97827148 85.24023438 C-49.84291992 85.79710937 -49.70756836 86.35398437 -49.56811523 86.92773438 C-46.48477133 97.85791156 -39.69738011 102.88653791 -30.13061523 108.48632812 C-24.8603702 111.41859581 -19.54878547 114.00265123 -13.99926758 116.37231445 C21.05812154 131.42776484 21.05812154 131.42776484 33.02172852 142.24023438 C33.81321289 142.93890625 34.60469727 143.63757813 35.42016602 144.35742188 C43.51624137 151.91555203 47.96810557 160.69534937 51.02172852 171.24023438 C51.35172852 172.23023438 51.68172852 173.22023438 52.02172852 174.24023438 C53.57251092 188.83974299 48.96480577 202.72263488 40.02172852 214.24023438 C32.76225428 223.13046007 21.463283 230.47044169 10.02172852 232.24023438 C-20.30159841 234.17179898 -49.03471965 225.58079212 -72.29077148 205.68164062 C-92.43709333 187.38011279 -107.02083014 165.32559272 -111.97827148 138.24023438 C-112.18323242 137.16644531 -112.38819336 136.09265625 -112.59936523 134.98632812 C-117.6770767 104.76519022 -110.67539834 74.4597892 -93.04077148 49.42773438 C-88.98677409 44.08310891 -84.58258668 39.11399315 -79.97827148 34.24023438 C-79.28088867 33.47839844 -78.58350586 32.7165625 -77.86499023 31.93164062 C-69.42188548 23.0254771 -55.7122082 11.21976797 -42.97827148 10.24023438 C-42.97827148 9.58023438 -42.97827148 8.92023438 -42.97827148 8.24023438 C-35.24993157 5.30674119 -27.64150433 3.47528508 -19.50390625 2.19213867 C-5.80516455 0.01546841 -5.80516455 0.01546841 0 0 Z " fill="#241E1F" transform="translate(413.978271484375,140.759765625)"/>
<path d="M0 0 C18.19119914 15.79978584 31.54756305 37.5970519 37.6875 61 C37.98527344 62.13050781 38.28304687 63.26101562 38.58984375 64.42578125 C44.30603534 90.63596851 41.91170893 118.67662905 30.6875 143 C30.39359375 143.6506543 30.0996875 144.30130859 29.796875 144.97167969 C15.26882685 176.81334455 -10.61785805 200.33838871 -43.34594727 212.6730957 C-67.93234412 221.38992561 -96.55797067 222.35816659 -121.625 214.875 C-122.33229248 214.66472168 -123.03958496 214.45444336 -123.76831055 214.23779297 C-131.74312506 211.73377377 -139.00522971 208.00917706 -146.3125 204 C-147.3953125 203.42121094 -148.478125 202.84242188 -149.59375 202.24609375 C-167.30687543 192.40800475 -182.68492894 177.18592957 -193.3125 160 C-193.93511719 159.03835938 -194.55773437 158.07671875 -195.19921875 157.0859375 C-200.13629452 149.13949451 -203.32189462 140.81394777 -206.3125 132 C-206.90224609 130.29070312 -206.90224609 130.29070312 -207.50390625 128.546875 C-217.64909664 97.54976193 -213.15259431 64.46020818 -198.78149414 35.73217773 C-186.16234441 11.28963718 -165.85569582 -10.05291608 -140.3125 -21 C-139.136875 -21.7425 -139.136875 -21.7425 -137.9375 -22.5 C-134.23523334 -24.61558095 -130.37239385 -25.73879037 -126.3125 -27 C-125.31734375 -27.33257812 -124.3221875 -27.66515625 -123.296875 -28.0078125 C-79.64628766 -42.24169968 -34.13771961 -28.81331953 0 0 Z M-102.3125 -22 C-103.68875684 -21.67007032 -105.07704959 -21.38992423 -106.46875 -21.1328125 C-107.32726562 -20.96910156 -108.18578125 -20.80539063 -109.0703125 -20.63671875 C-110.8668313 -20.30147094 -112.66369569 -19.96806864 -114.4609375 -19.63671875 C-120.26549509 -18.52575743 -125.75764281 -17.01948563 -131.3125 -15 C-131.3125 -14.34 -131.3125 -13.68 -131.3125 -13 C-132.42625 -12.79375 -133.54 -12.5875 -134.6875 -12.375 C-156.96507083 -6.70789865 -176.15782611 16.69313849 -187.4921875 35.58203125 C-202.7364482 62.02124055 -206.50826473 93.81599991 -198.71044922 123.27441406 C-192.80621211 143.2205634 -182.54616857 159.90674932 -168.3125 175 C-167.70019531 175.67675781 -167.08789062 176.35351562 -166.45703125 177.05078125 C-148.00883564 196.67903202 -119.93920009 208.20765731 -93.31640625 209.21484375 C-91.54440808 209.25416372 -89.77224715 209.28673965 -88 209.3125 C-86.7637085 209.33932861 -86.7637085 209.33932861 -85.50244141 209.36669922 C-72.10553764 209.34784172 -60.12308475 202.54858878 -50.59765625 193.4609375 C-41.44809277 183.60756145 -36.17751541 170.58295963 -35.8125 157.125 C-36.07471285 151.37757775 -37.16549829 146.32838886 -39.3125 141 C-39.64121094 140.17886719 -39.96992188 139.35773438 -40.30859375 138.51171875 C-43.43773813 131.54964318 -47.9571229 126.37308082 -53.3125 121 C-53.97894531 120.31035156 -54.64539063 119.62070312 -55.33203125 118.91015625 C-65.87016615 108.7347105 -80.18007626 102.94337234 -93.33496094 96.92797852 C-95.41614399 95.9513641 -97.46570643 94.92331597 -99.515625 93.8828125 C-102.31804791 92.46895597 -105.10589288 91.25166887 -108.0625 90.1875 C-118.73395183 85.97465342 -130.07505818 79.75342289 -136.3125 69.8125 C-137.24065674 67.20205916 -137.90964832 64.73939144 -138.3125 62 C-138.9725 62 -139.6325 62 -140.3125 62 C-140.93148473 68.93262903 -139.60184201 72.56896745 -135.3125 78 C-134.83554687 78.62519531 -134.35859375 79.25039062 -133.8671875 79.89453125 C-125.69527692 89.22571287 -112.99983203 94.51601332 -102.23046875 100.2421875 C-56.530192 124.5619034 -56.530192 124.5619034 -49.3125 148 C-47.01071804 157.32988956 -47.38530619 167.22357557 -51.3125 176 C-51.56773437 176.66257812 -51.82296875 177.32515625 -52.0859375 178.0078125 C-56.65939342 188.70718186 -65.87072279 194.76904612 -76.3125 199 C-77.14007813 199.3403125 -77.96765625 199.680625 -78.8203125 200.03125 C-95.39392274 205.64237823 -116.25128423 202.49081546 -131.80126953 195.16235352 C-135.03354431 193.54545505 -138.18739824 191.8144864 -141.3125 190 C-142.18519531 189.49339844 -143.05789063 188.98679687 -143.95703125 188.46484375 C-159.25213045 178.84848541 -169.61281574 165.09905277 -175.3125 148 C-175.48681213 145.37960286 -175.58934435 142.80937916 -175.625 140.1875 C-175.65400391 139.48818359 -175.68300781 138.78886719 -175.71289062 138.06835938 C-175.77544948 132.92409624 -174.68115461 130.08358491 -171.3125 126 C-164.49568704 120.85261063 -158.68436348 120.10022028 -150.3125 121 C-146.13384275 122.33319065 -142.26267608 124.10804338 -138.3125 126 C-136.65091089 126.67922298 -134.98578438 127.35012186 -133.3125 128 C-132.3225 125.03 -132.3225 125.03 -131.3125 122 C-123.93710065 126.7120607 -122.45361314 133.99082785 -120.61157227 142.06201172 C-119.8123382 145.70174282 -119.05316507 149.34789087 -118.3125 153 C-119.29089844 152.45730469 -120.26929688 151.91460937 -121.27734375 151.35546875 C-128.15919693 147.58401305 -134.71598207 144.13235591 -142.3125 142 C-139.5625 137.125 -139.5625 137.125 -137.3125 136 C-138.03151361 132.86974337 -138.03151361 132.86974337 -140.5625 131.375 C-145.72565213 128.79342394 -151.60010844 128.07637957 -157.3125 129 C-160.38376248 130.71122317 -162.71759409 132.81018817 -164.3125 136 C-165.29978518 145.32256173 -163.76463097 152.60067276 -157.94921875 160.01171875 C-143.8962106 176.26306266 -122.84031341 190.37074262 -100.85449219 192.20507812 C-98.1915729 192.30307515 -95.53961807 192.32210569 -92.875 192.3125 C-91.53985352 192.33666992 -91.53985352 192.33666992 -90.17773438 192.36132812 C-84.03891617 192.36581229 -79.00106597 191.29785723 -73.3125 189 C-73.3125 188.67 -73.3125 188.34 -73.3125 188 C-77.9325 187.67 -82.5525 187.34 -87.3125 187 C-81.37964156 182.80358793 -75.24971913 180.19960607 -68.3125 178 C-68.3125 177.67 -68.3125 177.34 -68.3125 177 C-70.2925 176.67 -72.2725 176.34 -74.3125 176 C-73.6525 175.21625 -72.9925 174.4325 -72.3125 173.625 C-70.11048559 171.28487188 -70.11048559 171.28487188 -70.3125 169 C-69.36375 168.87625 -68.415 168.7525 -67.4375 168.625 C-64.22582809 168.28312823 -64.22582809 168.28312823 -62.3125 166 C-64.2925 166 -66.2725 166 -68.3125 166 C-67.9825 165.34 -67.6525 164.68 -67.3125 164 C-66.2607929 149.72683221 -67.80217838 138.45777526 -77.328125 127.140625 C-87.16585222 116.52827359 -98.84820877 109.68891197 -111.29296875 102.5703125 C-145.46063394 83.00283389 -145.46063394 83.00283389 -151.3125 64 C-151.6698988 62.33832765 -152.01001914 60.67254124 -152.3125 59 C-153.3025 59.33 -154.2925 59.66 -155.3125 60 C-156.19237606 62.38066801 -156.88508894 64.61481901 -157.5 67.0625 C-157.67724609 67.72572266 -157.85449219 68.38894531 -158.03710938 69.07226562 C-158.47355196 70.71187426 -158.89450219 72.35559238 -159.3125 74 C-160.13002303 72.41925436 -160.94131997 70.83528777 -161.75 69.25 C-162.20246094 68.36828125 -162.65492188 67.4865625 -163.12109375 66.578125 C-165.45681257 61.52378263 -166.19859183 56.51441615 -165.3125 51 C-162.34828071 43.72617776 -157.87258542 39.10919849 -151.3125 35 C-150.55710937 34.51402344 -149.80171875 34.02804688 -149.0234375 33.52734375 C-147.13278405 32.32814837 -145.23134783 31.15335003 -143.3125 30 C-146.43140143 28.44054928 -148.96748518 29.35447082 -152.3125 30 C-153.3025 30.66 -154.2925 31.32 -155.3125 32 C-150.88335283 24.29713535 -144.96345448 18.36925115 -136.25 16 C-134.60979118 15.64000904 -132.96535058 15.29658627 -131.3125 15 C-131.3125 14.01 -131.3125 13.02 -131.3125 12 C-137.5825 12 -143.8525 12 -150.3125 12 C-143.87707552 5.56457552 -137.12648153 3.72103523 -128.18115234 3.55737305 C-115.94363346 3.57924436 -115.94363346 3.57924436 -112.3125 6 C-111.3225 6 -110.3325 6 -109.3125 6 C-109.21453125 5.13117188 -109.1165625 4.26234375 -109.015625 3.3671875 C-107.71435682 -6.66155176 -105.27832462 -11.84459007 -97.3125 -18 C-97.35890625 -17.3709375 -97.4053125 -16.741875 -97.453125 -16.09375 C-97.79483322 -7.99038369 -95.97192146 -3.19130575 -90.8125 3 C-88.32551448 5.41646337 -88.32551448 5.41646337 -84.3125 5 C-84.3125 5.66 -84.3125 6.32 -84.3125 7 C-83.50167969 7.06316406 -82.69085938 7.12632812 -81.85546875 7.19140625 C-73.33985885 8.13317917 -66.78310238 10.21228126 -60.3125 16 C-58.4421516 18.66594437 -57.44953192 20.91377051 -56.3125 24 C-57.79363281 23.566875 -57.79363281 23.566875 -59.3046875 23.125 C-60.59891797 22.74986073 -61.89319103 22.37486835 -63.1875 22 C-63.83847656 21.80921875 -64.48945313 21.6184375 -65.16015625 21.421875 C-68.67891347 20.36215937 -68.67891347 20.36215937 -72.3125 20 C-70.77995225 24.29113371 -68.3103317 25.96601545 -64.3125 28 C-61.75562956 28.37863064 -59.22923653 28.51483635 -56.6484375 28.65625 C-51.81704553 29.15409835 -47.20236702 30.3429834 -42.50268555 31.54101562 C-37.77774672 32.72738795 -33.15825941 33.47789798 -28.3125 34 C-27.56122554 43.57874936 -30.1462015 52.70411613 -36.0625 60.3125 C-37.12693513 61.558068 -38.20325592 62.79416445 -39.3125 64 C-39.62703125 63.45730469 -39.9415625 62.91460937 -40.265625 62.35546875 C-40.69359375 61.64003906 -41.1215625 60.92460937 -41.5625 60.1875 C-42.18898438 59.12595703 -42.18898438 59.12595703 -42.828125 58.04296875 C-44.97774226 55.08441658 -46.94928732 53.21839472 -50.63647461 52.62768555 C-51.48733643 52.6306665 -52.33819824 52.63364746 -53.21484375 52.63671875 C-54.17841797 52.63607422 -55.14199219 52.63542969 -56.13476562 52.63476562 C-57.67680664 52.66086914 -57.67680664 52.66086914 -59.25 52.6875 C-60.83264648 52.70006836 -60.83264648 52.70006836 -62.44726562 52.71289062 C-72.79819562 52.86756681 -83.03651949 53.80113561 -93.3125 55 C-93.3125 54.01 -93.3125 53.02 -93.3125 52 C-97.69184119 52.51958285 -102.00053391 53.05675742 -106.3125 54 C-104.6544447 52.25904194 -103.17249596 50.91199746 -101.125 49.625 C-99.07568617 48.11418465 -99.07568617 48.11418465 -98.8125 45.5 C-99.11848594 42.94285404 -99.11848594 42.94285404 -100.8125 41.1875 C-104.31431937 39.5241358 -107.54897994 39.30554094 -111.3125 40 C-114.1225346 41.79363911 -115.82190468 43.01880935 -117.3125 46 C-117.85353841 49.92252847 -118.12573877 52.51145695 -116.20703125 56.0234375 C-111.14554521 62.34717067 -104.26047886 66.05402425 -97.3125 70 C-96.53777344 70.474375 -95.76304687 70.94875 -94.96484375 71.4375 C-89.09727159 74.94707587 -82.85579354 77.07022604 -76.40625 79.27587891 C-72.40085997 80.66113856 -68.41912089 82.1106168 -64.4375 83.5625 C-63.2611499 83.98378174 -63.2611499 83.98378174 -62.06103516 84.41357422 C-57.57125961 86.05167125 -53.34126704 87.92835854 -49.09472656 90.1184082 C-46.83258789 91.23739214 -44.52483738 92.03798968 -42.125 92.8125 C-32.55316843 96.21109762 -18.30535871 101.88339063 -13.07421875 111.20703125 C-12.69716797 112.09455078 -12.69716797 112.09455078 -12.3125 113 C-13.488125 113.103125 -14.66375 113.20625 -15.875 113.3125 C-20.13735903 113.82914958 -23.45337534 115.1508361 -27.3125 117 C-27.3125 117.33 -27.3125 117.66 -27.3125 118 C-26.71824219 117.94763184 -26.12398437 117.89526367 -25.51171875 117.84130859 C-8.47321325 116.53294746 -8.47321325 116.53294746 -3.13671875 120.15625 C1.6875 126.29456124 1.6875 126.29456124 1.6875 130 C0.38425781 130.27263672 0.38425781 130.27263672 -0.9453125 130.55078125 C-9.47222486 132.36744228 -9.47222486 132.36744228 -17.3125 136 C-14.19044828 137.04068391 -12.64299211 136.99162646 -9.42578125 136.66015625 C-8.48798828 136.56669922 -7.55019531 136.47324219 -6.58398438 136.37695312 C-5.60751953 136.27318359 -4.63105469 136.16941406 -3.625 136.0625 C-2.63693359 135.96259766 -1.64886719 135.86269531 -0.63085938 135.75976562 C1.80923718 135.5122196 4.24856991 135.25874638 6.6875 135 C7.16962214 136.56159059 7.64805873 138.12431928 8.125 139.6875 C8.39183594 140.55761719 8.65867187 141.42773438 8.93359375 142.32421875 C9.65094529 144.87025921 10.205041 147.4003423 10.6875 150 C9.45 149.9175 8.2125 149.835 6.9375 149.75 C-0.79123262 149.73775161 -8.23996652 152.26810316 -14.3125 157 C-10.10563516 157.29133413 -5.90135739 157.46826779 -1.6875 157.625 C-0.49769531 157.70878906 0.69210937 157.79257812 1.91796875 157.87890625 C5.42876637 157.97697322 8.29762564 157.93483503 11.6875 157 C14.63356316 154.03355962 16.09996953 150.82594842 17.6875 147 C18.55154608 145.34838966 19.4250415 143.7016491 20.3125 142.0625 C32.36118586 117.27001179 34.93961111 86.35616791 26.6875 60 C26.47851074 59.32324219 26.26952148 58.64648438 26.05419922 57.94921875 C21.13535792 42.53316481 13.34513041 29.13200615 2.6875 17 C1.511875 15.453125 1.511875 15.453125 0.3125 13.875 C-11.40290155 1.04384592 -28.46285465 -11.23387736 -45.3125 -16 C-46.3025 -16 -47.2925 -16 -48.3125 -16 C-48.3125 -16.66 -48.3125 -17.32 -48.3125 -18 C-50.49823562 -18.65177969 -52.6861823 -19.29614674 -54.875 -19.9375 C-56.09316406 -20.29714844 -57.31132812 -20.65679687 -58.56640625 -21.02734375 C-64.72637808 -22.62675249 -70.60717981 -23.12728955 -76.9609375 -23.1328125 C-78.0079332 -23.13424759 -78.0079332 -23.13424759 -79.07608032 -23.13571167 C-80.53656099 -23.13638703 -81.99704477 -23.13457809 -83.45751953 -23.13037109 C-85.70221557 -23.12496456 -87.94671594 -23.13036262 -90.19140625 -23.13671875 C-91.61458378 -23.13605881 -93.03776118 -23.13477939 -94.4609375 -23.1328125 C-96.39718994 -23.13112061 -96.39718994 -23.13112061 -98.37255859 -23.12939453 C-101.20116347 -23.33644699 -101.20116347 -23.33644699 -102.3125 -22 Z " fill="#E62026" transform="translate(502.3125,164)"/>
<path d="M0 0 C4.62 0 9.24 0 14 0 C14.27714844 1.67449219 14.55429687 3.34898437 14.83984375 5.07421875 C15.20568603 7.27865299 15.57157382 9.48307968 15.9375 11.6875 C16.11990234 12.79029297 16.30230469 13.89308594 16.49023438 15.02929688 C16.66748047 16.09599609 16.84472656 17.16269531 17.02734375 18.26171875 C17.27085571 19.73064575 17.27085571 19.73064575 17.51928711 21.22924805 C17.97043414 23.8295871 18.46974671 26.4147573 19 29 C20.01839968 26.00590495 21.0129264 23.00455575 22 20 C22.391875 18.824375 22.78375 17.64875 23.1875 16.4375 C24.46581829 11.02923031 24.35964457 6.43857828 23 1 C26.96 1 30.92 1 35 1 C35.83924778 5.06135979 36.6716126 9.12392398 37.5 13.1875 C37.73847656 14.33798828 37.97695313 15.48847656 38.22265625 16.67382812 C38.44824219 17.78564453 38.67382812 18.89746094 38.90625 20.04296875 C39.11572266 21.06414795 39.32519531 22.08532715 39.54101562 23.13745117 C39.97101791 25.81924732 40.08705161 28.29051865 40 31 C40.66 31 41.32 31 42 31 C42.14622803 30.23333008 42.29245605 29.46666016 42.44311523 28.67675781 C43.10674124 25.20094751 43.77210121 21.72547134 44.4375 18.25 C44.66759766 17.0434375 44.89769531 15.836875 45.13476562 14.59375 C45.35712891 13.43359375 45.57949219 12.2734375 45.80859375 11.078125 C46.01282959 10.00981445 46.21706543 8.94150391 46.42749023 7.84082031 C46.88972495 5.54718997 47.43252877 3.2698849 48 1 C51.96 1 55.92 1 60 1 C59.52582137 4.31328591 59.04591278 7.62556034 58.5625 10.9375 C58.42779297 11.88302734 58.29308594 12.82855469 58.15429688 13.80273438 C58.02216797 14.70185547 57.89003906 15.60097656 57.75390625 16.52734375 C57.57323608 17.77632446 57.57323608 17.77632446 57.38891602 19.05053711 C57 21 57 21 56 22 C55.66747281 23.66900908 55.38840894 25.34874113 55.1328125 27.03125 C54.88724609 28.58972656 54.88724609 28.58972656 54.63671875 30.1796875 C54.30045831 32.36153006 53.96703805 34.54381258 53.63671875 36.7265625 C52.73555279 42.41298957 51.58467426 47.69594185 49.63769531 53.11474609 C48.8569332 55.4229563 48.50499557 57.63705586 48.3125 60.0625 C48.1578125 62.0115625 48.1578125 62.0115625 48 64 C43.71 64 39.42 64 35 64 C34.87625 62.47375 34.7525 60.9475 34.625 59.375 C34.22413062 55.32049255 33.45669275 51.82381848 32 48 C31.65425231 46.66983181 31.31858834 45.33693319 31 44 C28.60918605 50.67203894 26.54515672 56.91296261 26 64 C21.71 64 17.42 64 13 64 C12.77213542 61.68880208 12.54427083 59.37760417 12.31640625 57.06640625 C12.21069185 55.01337975 12.21069185 55.01337975 11 54 C10.56905428 51.52283717 10.18197511 49.04903271 9.8125 46.5625 C8.37057779 37.26541596 6.25351395 28.16403958 3.98168945 19.03735352 C2.56708547 13.1912451 1.67223169 8.01636948 2 2 C1.34 2 0.68 2 0 2 C0 1.34 0 0.68 0 0 Z " fill="#F2F2F2" transform="translate(339,410)"/>
<path d="M0 0 C25.75675676 0 25.75675676 0 31.5 5.3125 C34.91823384 11.43683564 34.56391861 19.1373973 34 26 C33.64550781 26.67804688 33.29101562 27.35609375 32.92578125 28.0546875 C31.64872161 30.73812928 32.34306646 32.105511 33 35 C33.23386153 38.14495804 33.27609536 41.28485798 33.3125 44.4375 C33.34150391 45.27087891 33.37050781 46.10425781 33.40039062 46.96289062 C33.45726573 52.49727562 32.75115333 55.66093166 29 60 C24 64 24 64 0 64 C0 42.88 0 21.76 0 0 Z " fill="#F8F8F8" transform="translate(458,410)"/>
<path d="M0 0 C11.55 0 23.1 0 35 0 C35 3.96 35 7.92 35 12 C32.69 12.66 30.38 13.32 28 14 C28 14.66 28 15.32 28 16 C26.35 16.33 24.7 16.66 23 17 C23 15.35 23 13.7 23 12 C19.7 12 16.4 12 13 12 C13 18.6 13 25.2 13 32 C15.64 30.35 18.28 28.7 21 27 C21.99 27 22.98 27 24 27 C24 30.96 24 34.92 24 39 C22.205625 39.639375 20.41125 40.27875 18.5625 40.9375 C14.36005731 42.67912407 14.36005731 42.67912407 12.046875 46.3359375 C11.72813322 49.09381865 11.72813322 49.09381865 12 53 C15.63 53 19.26 53 23 53 C22.938125 51.88625 22.87625 50.7725 22.8125 49.625 C22.9053125 47.830625 22.9053125 47.830625 23 46 C26 44 26 44 30 44 C30 43.34 30 42.68 30 42 C32.475 41.505 32.475 41.505 35 41 C35 48.59 35 56.18 35 64 C23.78 64 12.56 64 1 64 C0.67 42.88 0.34 21.76 0 0 Z " fill="#F8F8F8" transform="translate(292,410)"/>
<path d="M0 0 C5.424375 -0.020625 10.84875 -0.04125 16.4375 -0.0625 C18.15122803 -0.071604 19.86495605 -0.08070801 21.63061523 -0.09008789 C22.98160727 -0.09300716 24.33260019 -0.09555569 25.68359375 -0.09765625 C26.39100708 -0.10277222 27.09842041 -0.10788818 27.82727051 -0.11315918 C29.55192617 -0.11347032 31.27646838 -0.06225761 33 0 C34 1 34 1 34.09765625 3.50390625 C34.08605469 4.51324219 34.07445312 5.52257812 34.0625 6.5625 C34.05347656 7.57441406 34.04445313 8.58632813 34.03515625 9.62890625 C34.02355469 10.41136719 34.01195312 11.19382812 34 12 C32.75264433 12.6509259 31.50198168 13.29551669 30.25 13.9375 C29.55390625 14.29714844 28.8578125 14.65679687 28.140625 15.02734375 C26.09775567 15.95558182 24.18884624 16.53166578 22 17 C22 15.35 22 13.7 22 12 C18.7 12 15.4 12 12 12 C12 18.6 12 25.2 12 32 C12.99 32 13.98 32 15 32 C15 31.34 15 30.68 15 30 C17.64 29.34 20.28 28.68 23 28 C23.28327415 31.70774391 23.43777955 35.30076283 23 39 C20.8125 41.0625 20.8125 41.0625 18 42 C17.071875 42.391875 16.14375 42.78375 15.1875 43.1875 C14.465625 43.455625 13.74375 43.72375 13 44 C12.67 46.97 12.34 49.94 12 53 C15.63 53 19.26 53 23 53 C23 51.02 23 49.04 23 47 C23.99 47 24.98 47 26 47 C26 46.01 26 45.02 26 44 C28.88834003 41.89229241 30.38462395 41 34 41 C34 48.59 34 56.18 34 64 C22.78 64 11.56 64 0 64 C0 42.88 0 21.76 0 0 Z " fill="#EFEFEF" transform="translate(507,410)"/>
<path d="M0 0 C7.34410112 6.46980337 7.34410112 6.46980337 8.625 10.3125 C8.75281786 12.98644964 8.66891871 15.63345857 8.625 18.3125 C6.975 18.6425 5.325 18.9725 3.625 19.3125 C3.295 20.3025 2.965 21.2925 2.625 22.3125 C0.645 22.6425 -1.335 22.9725 -3.375 23.3125 C-3.42398437 22.62542969 -3.47296875 21.93835938 -3.5234375 21.23046875 C-3.59820312 20.32941406 -3.67296875 19.42835938 -3.75 18.5 C-3.81960938 17.60667969 -3.88921875 16.71335937 -3.9609375 15.79296875 C-4.24145036 13.06851501 -4.24145036 13.06851501 -6.375 10.3125 C-9.45865871 10.0622843 -9.45865871 10.0622843 -12.375 10.3125 C-12.45590971 11.93668745 -12.51414995 13.56201745 -12.5625 15.1875 C-12.59730469 16.09242188 -12.63210938 16.99734375 -12.66796875 17.9296875 C-12.57128906 18.71601563 -12.47460938 19.50234375 -12.375 20.3125 C-11.385 20.9725 -10.395 21.6325 -9.375 22.3125 C-9.375 22.9725 -9.375 23.6325 -9.375 24.3125 C-8.48748047 24.55033203 -8.48748047 24.55033203 -7.58203125 24.79296875 C-2.24992813 26.3673744 0.93948081 27.95688641 4.625 32.3125 C5.285 32.9725 5.945 33.6325 6.625 34.3125 C9.06046942 40.67178127 10.35750661 48.25443645 7.609375 54.69140625 C6.3831329 56.69697691 5.13344411 58.51086535 3.625 60.3125 C3.22796875 60.87324219 2.8309375 61.43398438 2.421875 62.01171875 C-0.41716376 64.06693594 -3.44733901 63.70566062 -6.8125 63.625 C-8.13121094 63.62113281 -9.44992187 63.61726563 -10.80859375 63.61328125 C-15.13530793 63.24837764 -17.14133622 62.67328604 -20.04296875 59.47265625 C-20.54441406 58.78042969 -21.04585937 58.08820313 -21.5625 57.375 C-22.07167969 56.68535156 -22.58085937 55.99570312 -23.10546875 55.28515625 C-25.64698919 51.33602448 -25.46131298 47.88708798 -25.375 43.3125 C-23.94070999 42.63895501 -22.50242943 41.97390299 -21.0625 41.3125 C-20.26199219 40.94125 -19.46148437 40.57 -18.63671875 40.1875 C-16.375 39.3125 -16.375 39.3125 -13.375 39.3125 C-13.31441406 39.99957031 -13.25382812 40.68664062 -13.19140625 41.39453125 C-13.10761719 42.29558594 -13.02382813 43.19664062 -12.9375 44.125 C-12.85628906 45.01832031 -12.77507812 45.91164063 -12.69140625 46.83203125 C-12.44010233 49.43993559 -12.44010233 49.43993559 -11.375 52.3125 C-7.91 51.8175 -7.91 51.8175 -4.375 51.3125 C-4.26615881 49.89756449 -4.18902383 48.48017057 -4.125 47.0625 C-4.07859375 46.27359375 -4.0321875 45.4846875 -3.984375 44.671875 C-4.52425838 41.41097937 -5.84864989 40.38771616 -8.375 38.3125 C-10.01301216 37.28611738 -11.68147999 36.30695232 -13.375 35.375 C-17.21195548 33.13960558 -20.01059168 31.18153179 -22.375 27.3125 C-22.375 26.6525 -22.375 25.9925 -22.375 25.3125 C-23.365 24.9825 -24.355 24.6525 -25.375 24.3125 C-25.45632187 21.74935501 -25.51564175 19.18881582 -25.5625 16.625 C-25.58763672 15.90376953 -25.61277344 15.18253906 -25.63867188 14.43945312 C-25.72072593 8.44950676 -24.24858214 5.48827281 -20.4375 1.0625 C-15.15498674 -3.41963246 -5.87742601 -2.93871301 0 0 Z " fill="#EDEDED" transform="translate(269.375,411.6875)"/>
<path d="M0 0 C4.68139254 -0.02465288 9.36274759 -0.04283739 14.04418945 -0.05493164 C15.63794614 -0.05997157 17.23169819 -0.0668035 18.82543945 -0.07543945 C21.11150253 -0.08751999 23.39750467 -0.09323155 25.68359375 -0.09765625 C26.40026718 -0.10281754 27.11694061 -0.10797882 27.85533142 -0.11329651 C29.57063672 -0.11349263 31.28581266 -0.06192007 33 0 C34 1 34 1 34.09765625 3.72265625 C34.08605469 4.82480469 34.07445312 5.92695313 34.0625 7.0625 C34.05347656 8.16722656 34.04445313 9.27195312 34.03515625 10.41015625 C34.02355469 11.26480469 34.01195312 12.11945313 34 13 C28.555 12.505 28.555 12.505 23 12 C23 29.16 23 46.32 23 64 C19.04 64 15.08 64 11 64 C11 46.84 11 29.68 11 12 C7.37 12.33 3.74 12.66 0 13 C0 8.71 0 4.42 0 0 Z " fill="#FBFBFB" transform="translate(556,410)"/>
<path d="M0 0 C4.62 0 9.24 0 14 0 C14.99 4.95 15.98 9.9 17 15 C17.66 15 18.32 15 19 15 C19.99 10.38 20.98 5.76 22 1 C25.96 1 29.92 1 34 1 C31.41317305 12.06587082 31.41317305 12.06587082 29.5 16.90234375 C23.64508555 32.24760018 23.97897704 47.78679212 24 64 C20.04 64 16.08 64 12 64 C12.01683838 63.17725586 12.03367676 62.35451172 12.05102539 61.50683594 C12.3165107 41.4522701 10.08150042 25.09889545 2.81030273 6.28955078 C2 4 2 4 2 2 C1.34 2 0.68 2 0 2 C0 1.34 0 0.68 0 0 Z " fill="#F3F3F3" transform="translate(410,410)"/>
<path d="M0 0 C2.68538385 1.61458704 4.19640021 2.54063933 6 5 C6.79331061 8.52312236 6.65814043 11.90724712 6.5 15.5 C6.4896875 16.43714844 6.479375 17.37429688 6.46875 18.33984375 C6.23208454 28.76791546 6.23208454 28.76791546 3 32 C1.19072719 32.12487758 -0.62396107 32.17570846 -2.4375 32.1875 C-3.42621094 32.20167969 -4.41492188 32.21585938 -5.43359375 32.23046875 C-8 32 -8 32 -10 30 C-11.61302211 25.18368892 -11.34338742 20.02366454 -11.4375 15 C-11.48326172 14.00226563 -11.52902344 13.00453125 -11.57617188 11.9765625 C-11.61907733 9.1933044 -11.58688876 6.72214666 -11 4 C-7.57711901 0.83790994 -4.68759327 -1.05470849 0 0 Z " fill="#CF2323" transform="translate(352,490)"/>
<path d="M0 0 C3.1359157 1.77984405 3.84102736 2.52308207 5 6 C5.30709797 9.8282289 5.32356276 13.66091177 5.375 17.5 C5.41238281 18.55832031 5.44976562 19.61664063 5.48828125 20.70703125 C5.5208627 23.55609814 5.49717561 26.19392688 5 29 C2.24784875 31.57726538 0.67501106 31.88749816 -3 32.5 C-7.28353714 31.78607714 -8.42048164 30.50077491 -11 27 C-11.74387555 23.1335069 -11.69820536 19.36374737 -11.625 15.4375 C-11.64433594 14.39658203 -11.66367187 13.35566406 -11.68359375 12.28320312 C-11.6350003 4.72692214 -11.6350003 4.72692214 -8.65234375 1.3125 C-5.43538233 -0.27939843 -3.54657918 -0.52821392 0 0 Z " fill="#D72323" transform="translate(320,490)"/>
<path d="M0 0 C1.2065625 0.0309375 1.2065625 0.0309375 2.4375 0.0625 C2.4375 2.7025 2.4375 5.3425 2.4375 8.0625 C3.4275 8.3925 4.4175 8.7225 5.4375 9.0625 C5.94438605 11.60296458 6.44316874 14.14458876 6.9375 16.6875 C7.08058594 17.40035156 7.22367187 18.11320312 7.37109375 18.84765625 C8.16799426 22.98394935 8.59784056 26.82683679 8.4375 31.0625 C6.4575 31.0625 4.4775 31.0625 2.4375 31.0625 C2.1075 29.4125 1.7775 27.7625 1.4375 26.0625 C-0.2125 26.3925 -1.8625 26.7225 -3.5625 27.0625 C-3.5625 28.3825 -3.5625 29.7025 -3.5625 31.0625 C-5.2125 31.0625 -6.8625 31.0625 -8.5625 31.0625 C-7.54794167 23.42347256 -6.39888254 15.82749512 -5 8.25 C-4.87326904 7.55068359 -4.74653809 6.85136719 -4.6159668 6.13085938 C-3.47669018 0.08479732 -3.47669018 0.08479732 0 0 Z " fill="#D02323" transform="translate(476.5625,490.9375)"/>
<path d="M0 0 C2.83366442 2.47945637 3.85455502 3.95764427 4.375 7.6875 C4 10 4 10 2 12 C0.68 12 -0.64 12 -2 12 C-2.33 10.02 -2.66 8.04 -3 6 C-4.32 6 -5.64 6 -7 6 C-7.32303187 9.52207552 -7.32303187 9.52207552 -5.875 12.625 C-3.40577314 14.43576637 -0.75741585 15.6812359 2 17 C3.64965169 18.64965169 3.24949498 20.5476355 3.3125 22.8125 C3.2600191 26.14742277 3.17685789 27.69049869 1.5 30.625 C-2.30394077 32.71716742 -4.67744833 32.54889545 -9 32 C-11 30.375 -11 30.375 -12 28 C-12.1875 24.75 -12.1875 24.75 -12 22 C-10.68 22 -9.36 22 -8 22 C-7.67 23.32 -7.34 24.64 -7 26 C-5.68 26 -4.36 26 -3 26 C-3 23.69 -3 21.38 -3 19 C-3.9075 18.7525 -4.815 18.505 -5.75 18.25 C-9.26911941 16.89649254 -10.87456686 16.10640228 -13 13 C-13.70476018 8.06667872 -13.77041398 6.15562097 -11 2 C-6.82471182 -0.78352545 -4.95378117 -0.78631447 0 0 Z " fill="#D12323" transform="translate(449,490)"/>
<path d="M0 0 C4.95 0 9.9 0 15 0 C15 1.65 15 3.3 15 5 C13.02 5.99 13.02 5.99 11 7 C11 6.34 11 5.68 11 5 C9.02 5 7.04 5 5 5 C5 8.3 5 11.6 5 15 C6.65 14.67 8.3 14.34 10 14 C10 15.65 10 17.3 10 19 C8.02 19.99 8.02 19.99 6 21 C6 22.32 6 23.64 6 25 C7.65 25.33 9.3 25.66 11 26 C11 24.68 11 23.36 11 22 C12.65 21.67 14.3 21.34 16 21 C16 24.3 16 27.6 16 31 C10.72 31 5.44 31 0 31 C0 20.77 0 10.54 0 0 Z " fill="#D82323" transform="translate(534,491)"/>
<path d="M0 0 C5.28 0 10.56 0 16 0 C17 1 17 1 17.25 3.4375 C17.1675 4.283125 17.085 5.12875 17 6 C14 8 14 8 11 8 C11 7.34 11 6.68 11 6 C9.35 6 7.7 6 6 6 C6 9.3 6 12.6 6 16 C7.65 15.67 9.3 15.34 11 15 C11 16.65 11 18.3 11 20 C9.35 20.66 7.7 21.32 6 22 C6 25.3 6 28.6 6 32 C4.02 32 2.04 32 0 32 C0 21.44 0 10.88 0 0 Z " fill="#CA2323" transform="translate(501,490)"/>
<path d="M0 0 C2.31 0 4.62 0 7 0 C7 10.89 7 21.78 7 33 C5.02 33 3.04 33 1 33 C1 24.42 1 15.84 1 7 C0.01 7 -0.98 7 -2 7 C-2.125 4.625 -2.125 4.625 -2 2 C-1.34 1.34 -0.68 0.68 0 0 Z " fill="#C02222" transform="translate(285,490)"/>
<path d="M0 0 C4.68139254 -0.02465288 9.36274759 -0.04283739 14.04418945 -0.05493164 C15.63794614 -0.05997157 17.23169819 -0.0668035 18.82543945 -0.07543945 C21.11150253 -0.08751999 23.39750467 -0.09323155 25.68359375 -0.09765625 C26.40026718 -0.10281754 27.11694061 -0.10797882 27.85533142 -0.11329651 C29.57063672 -0.11349263 31.28581266 -0.06192007 33 0 C34 1 34 1 34.09765625 3.72265625 C34.08605469 4.82480469 34.07445312 5.92695313 34.0625 7.0625 C34.05347656 8.16722656 34.04445313 9.27195312 34.03515625 10.41015625 C34.02355469 11.26480469 34.01195312 12.11945313 34 13 C28.555 12.505 28.555 12.505 23 12 C23 29.16 23 46.32 23 64 C19.04 64 15.08 64 11 64 C11 46.84 11 29.68 11 12 C11.33 12 11.66 12 12 12 C12 28.83 12 45.66 12 63 C15.3 63 18.6 63 22 63 C22 45.84 22 28.68 22 11 C25.3 11 28.6 11 32 11 C32 7.7 32 4.4 32 1 C21.77 1 11.54 1 1 1 C1.33 4.96 1.66 8.92 2 13 C1.34 13 0.68 13 0 13 C0 8.71 0 4.42 0 0 Z " fill="#A3A2A3" transform="translate(556,410)"/>
<path d="M0 0 C11.55 0 23.1 0 35 0 C35 3.96 35 7.92 35 12 C34.67 12 34.34 12 34 12 C34 8.37 34 4.74 34 1 C23.44 1 12.88 1 2 1 C2 21.46 2 41.92 2 63 C12.23 63 22.46 63 33 63 C33 56.4 33 49.8 33 43 C32.01 42.67 31.02 42.34 30 42 C32.475 41.505 32.475 41.505 35 41 C35 48.59 35 56.18 35 64 C23.78 64 12.56 64 1 64 C0.67 42.88 0.34 21.76 0 0 Z " fill="#A3A2A3" transform="translate(292,410)"/>
<path d="M0 0 C20 0 20 0 23 2 C16.07 2 9.14 2 2 2 C2 22.13 2 42.26 2 63 C9.26 63 16.52 63 24 63 C24 63.33 24 63.66 24 64 C16.08 64 8.16 64 0 64 C0 42.88 0 21.76 0 0 Z " fill="#B7B7B7" transform="translate(458,410)"/>
<path d="M0 0 C1.670625 0.061875 1.670625 0.061875 3.375 0.125 C4.66504296 2.70508592 4.57910224 4.68241574 4.625 7.5625 C4.66367187 9.01462891 4.66367187 9.01462891 4.703125 10.49609375 C4.375 13.125 4.375 13.125 3.01953125 14.94921875 C0.68920743 16.61531725 -0.83294703 16.55454661 -3.625 16.125 C-5.86734009 12.76148987 -5.89598215 11.50189944 -5.875 7.5625 C-5.88015625 6.59183594 -5.8853125 5.62117188 -5.890625 4.62109375 C-5.43963229 0.38308876 -4.12798376 0.14234427 0 0 Z " fill="#B82222" transform="translate(379.625,489.875)"/>
<path d="M0 0 C3.125 0.3125 3.125 0.3125 4.80859375 2.00390625 C6.38216781 4.76349755 6.43684033 6.41254504 6.3125 9.5625 C6.28542969 10.45453125 6.25835937 11.3465625 6.23046875 12.265625 C6.19566406 12.94109375 6.16085937 13.6165625 6.125 14.3125 C6.785 14.6425 7.445 14.9725 8.125 15.3125 C7.465 15.3125 6.805 15.3125 6.125 15.3125 C6.455 16.3025 6.785 17.2925 7.125 18.3125 C2.375 16.4375 2.375 16.4375 0.125 15.3125 C0.125 14.6525 0.125 13.9925 0.125 13.3125 C-1.195 12.6525 -2.515 11.9925 -3.875 11.3125 C-3.90188151 9.66675434 -3.92134123 8.02088587 -3.9375 6.375 C-3.94910156 5.45847656 -3.96070313 4.54195313 -3.97265625 3.59765625 C-3.82654308 0.17860799 -3.45286659 0.37531159 0 0 Z " fill="#373536" transform="translate(259.875,420.6875)"/>
<path d="M0 0 C1.29640378 0.59393382 2.58698839 1.20057989 3.875 1.8125 C4.59429687 2.14894531 5.31359375 2.48539062 6.0546875 2.83203125 C8 4 8 4 10 7 C10.23046875 9.2265625 10.23046875 9.2265625 10.1875 11.625 C10.17783203 12.81996094 10.17783203 12.81996094 10.16796875 14.0390625 C10 16 10 16 9 17 C5.5625 17.25 5.5625 17.25 2 17 C-0.20914 13.68629 -0.22481553 12.6553979 -0.125 8.8125 C-0.10695312 7.91144531 -0.08890625 7.01039063 -0.0703125 6.08203125 C-0.04710937 5.39496094 -0.02390625 4.70789063 0 4 C-0.99 3.67 -1.98 3.34 -3 3 C-2.01 2.67 -1.02 2.34 0 2 C0 1.34 0 0.68 0 0 Z " fill="#383637" transform="translate(256,447)"/>
<path d="M0 0 C3 0.25 3 0.25 5 2.25 C5.23046875 5.03515625 5.23046875 5.03515625 5.1875 8.3125 C5.17783203 9.93865234 5.17783203 9.93865234 5.16796875 11.59765625 C5 14.25 5 14.25 4 15.25 C0.5625 15.4375 0.5625 15.4375 -3 15.25 C-5 13.25 -5 13.25 -5.265625 10.71875 C-5.26046875 9.7390625 -5.2553125 8.759375 -5.25 7.75 C-5.25515625 6.7703125 -5.2603125 5.790625 -5.265625 4.78125 C-4.86151555 0.93032467 -3.79224855 0.31602071 0 0 Z " fill="#A62222" transform="translate(392,506.75)"/>
<path d="M0 0 C1.29729053 2.59458106 1.2042812 4.60447598 1.25 7.5 C1.28867187 8.96953125 1.28867187 8.96953125 1.328125 10.46875 C1.21984375 11.3040625 1.1115625 12.139375 1 13 C-2.6441774 15.4294516 -4.71241272 15.16179575 -9 15 C-9.13504138 13.06440687 -9.23201129 11.126128 -9.3125 9.1875 C-9.37050781 8.10855469 -9.42851562 7.02960938 -9.48828125 5.91796875 C-9 3 -9 3 -6.73046875 1.11328125 C-4 0 -4 0 0 0 Z " fill="#363435" transform="translate(479,448)"/>
<path d="M0 0 C2.64 0 5.28 0 8 0 C10 2 10 2 10.4375 5.3125 C10 9 10 9 7.8125 11.8125 C5 14 5 14 0 16 C0 10.72 0 5.44 0 0 Z " fill="#333132" transform="translate(470,422)"/>
<path d="M0 0 C1.98 0 3.96 0 6 0 C6 6.6 6 13.2 6 20 C4.35 20.33 2.7 20.66 1 21 C0 20 0 20 -0.11352539 18.05053711 C-0.10567017 16.8015564 -0.10567017 16.8015564 -0.09765625 15.52734375 C-0.09443359 14.62822266 -0.09121094 13.72910156 -0.08789062 12.80273438 C-0.07951172 11.85720703 -0.07113281 10.91167969 -0.0625 9.9375 C-0.05798828 8.98810547 -0.05347656 8.03871094 -0.04882812 7.06054688 C-0.0370011 4.70696935 -0.02052025 2.35351523 0 0 Z " fill="#451F20" transform="translate(314,496)"/>
<path d="M0 0 C0.99 0 1.98 0 3 0 C2.46860144 4.25118847 1.53227248 7.30841073 -0.625 11 C-2.46716166 14.22267317 -4.24217855 17.44312212 -5.84765625 20.7890625 C-6.15429199 21.42585938 -6.46092773 22.06265625 -6.77685547 22.71875 C-7.65259563 24.55193476 -8.51983716 26.38917209 -9.38671875 28.2265625 C-11 31 -11 31 -14 32 C-13.44686437 26.64464139 -11.5721109 22.63437415 -9.125 17.9375 C-8.77308594 17.24333984 -8.42117188 16.54917969 -8.05859375 15.83398438 C-6.16792179 12.13346844 -4.14889313 8.55810791 -2 5 C-1.30177383 3.34630643 -0.62501395 1.68272986 0 0 Z " fill="#B62222" transform="translate(391,490)"/>
<path d="M0 0 C1.98 0.495 1.98 0.495 4 1 C4 7.6 4 14.2 4 21 C2.68 21.33 1.36 21.66 0 22 C-1.58937556 20.41062444 -1.12981143 18.76100154 -1.1328125 16.5625 C-1.13410156 15.66789062 -1.13539063 14.77328125 -1.13671875 13.8515625 C-1.13091797 12.44003906 -1.13091797 12.44003906 -1.125 11 C-1.12886719 10.05898438 -1.13273437 9.11796875 -1.13671875 8.1484375 C-1.13542969 7.25382812 -1.13414062 6.35921875 -1.1328125 5.4375 C-1.13112061 4.19806641 -1.13112061 4.19806641 -1.12939453 2.93359375 C-1 1 -1 1 0 0 Z " fill="#361F1F" transform="translate(348,495)"/>
<path d="M0 0 C0 7.59 0 15.18 0 23 C-10.89 23 -21.78 23 -33 23 C-33 22.67 -33 22.34 -33 22 C-22.77 22 -12.54 22 -2 22 C-2 15.4 -2 8.8 -2 2 C-2.99 1.67 -3.98 1.34 -5 1 C-3 0 -3 0 0 0 Z " fill="#AEADAD" transform="translate(327,451)"/>
<path d="M0 0 C1.4540625 0.0309375 1.4540625 0.0309375 2.9375 0.0625 C3.93043628 3.04130885 4.07156411 5.07851198 4.0625 8.1875 C4.06507813 9.07695313 4.06765625 9.96640625 4.0703125 10.8828125 C3.9375 13.0625 3.9375 13.0625 2.9375 14.0625 C1.27132885 14.10313832 -0.39638095 14.105221 -2.0625 14.0625 C-1.0725 13.4025 -0.0825 12.7425 0.9375 12.0625 C1.51743699 9.86795319 1.51743699 9.86795319 1.625 7.4375 C1.69074219 6.62023437 1.75648438 5.80296875 1.82421875 4.9609375 C1.86160156 4.33445312 1.89898437 3.70796875 1.9375 3.0625 C0.6175 3.0625 -0.7025 3.0625 -2.0625 3.0625 C-2.0625 5.7025 -2.0625 8.3425 -2.0625 11.0625 C-3.0525 11.5575 -3.0525 11.5575 -4.0625 12.0625 C-4.08937279 10.25007948 -4.10883715 8.43754767 -4.125 6.625 C-4.13660156 5.61566406 -4.14820313 4.60632813 -4.16015625 3.56640625 C-4.01596662 -0.13061575 -3.76355726 0.07680729 0 0 Z " fill="#DF2323" transform="translate(392.0625,506.9375)"/>
<path d="M0 0 C0.99 0 1.98 0 3 0 C3 2.31 3 4.62 3 7 C4.98 7 6.96 7 9 7 C9 10.63 9 14.26 9 18 C8.67 18 8.34 18 8 18 C8 14.7 8 11.4 8 8 C6.35 8.33 4.7 8.66 3 9 C3 10.32 3 11.64 3 13 C1.35 13 -0.3 13 -2 13 C-2.625 10.625 -2.625 10.625 -3 8 C-2.34 7.34 -1.68 6.68 -1 6 C-0.01 6 0.98 6 2 6 C2 4.35 2 2.7 2 1 C1.34 0.67 0.68 0.34 0 0 Z " fill="#5B1F20" transform="translate(542,504)"/>
<path d="M0 0 C0.33 0 0.66 0 1 0 C1 6.6 1 13.2 1 20 C1.99 20 2.98 20 4 20 C4 19.34 4 18.68 4 18 C6.64 17.34 9.28 16.68 12 16 C12 19.63 12 23.26 12 27 C11.01 27 10.02 27 9 27 C9.495 22.545 9.495 22.545 10 18 C9.278125 18.495 8.55625 18.99 7.8125 19.5 C5 21 5 21 0 21 C0 14.07 0 7.14 0 0 Z " fill="#BFBEBF" transform="translate(518,422)"/>
<path d="M0 0 C-1.55500981 3.81684226 -4.03595495 6.19195732 -7 9 C-1.555 8.505 -1.555 8.505 4 8 C3.67 8.99 3.34 9.98 3 11 C1 11.75 1 11.75 -1 12 C-1.33 11.67 -1.66 11.34 -2 11 C-5.49734228 11.38859359 -8.65788261 11.88596087 -12 13 C-10.66182195 9.02031425 -8.99662286 6.61251238 -6 3.6875 C-5.29875 2.99011719 -4.5975 2.29273438 -3.875 1.57421875 C-2 0 -2 0 0 0 Z " fill="#C92025" transform="translate(359,183)"/>
<path d="M0 0 C1.67542976 0.28604898 3.34385343 0.61781233 5 1 C5 2.98 5 4.96 5 7 C5.66 7.33 6.32 7.66 7 8 C7.33 8.99 7.66 9.98 8 11 C0.98165138 8.97247706 0.98165138 8.97247706 -1 6 C-1.25 3.375 -1.25 3.375 -1 1 C-0.67 0.67 -0.34 0.34 0 0 Z " fill="#692020" transform="translate(442,495)"/>
<path d="M0 0 C0.66 0.33 1.32 0.66 2 1 C1.2733313 1.58454956 1.2733313 1.58454956 0.53198242 2.1809082 C-1.47673728 4.56608279 -1.42236982 6.01399593 -1.51171875 9.10546875 C-1.56489258 10.57983398 -1.56489258 10.57983398 -1.61914062 12.08398438 C-1.64169922 13.10814453 -1.66425781 14.13230469 -1.6875 15.1875 C-1.73874023 16.74114258 -1.73874023 16.74114258 -1.79101562 18.32617188 C-1.87352642 20.8840066 -1.94266572 23.44149723 -2 26 C-4 24 -4 24 -4.22705078 21.75341797 C-4.21657715 20.84221191 -4.20610352 19.93100586 -4.1953125 18.9921875 C-4.18886719 18.00605469 -4.18242187 17.01992188 -4.17578125 16.00390625 C-4.15902344 14.97136719 -4.14226562 13.93882812 -4.125 12.875 C-4.11597656 11.83472656 -4.10695313 10.79445313 -4.09765625 9.72265625 C-4.07403747 7.14820908 -4.04110149 4.57421788 -4 2 C-2.125 0.9375 -2.125 0.9375 0 0 Z " fill="#BC2222" transform="translate(345,492)"/>
<path d="M0 0 C1.98 0.66 3.96 1.32 6 2 C6.33 4.31 6.66 6.62 7 9 C5.35 9.33 3.7 9.66 2 10 C1.67 8.35 1.34 6.7 1 5 C0.34 5 -0.32 5 -1 5 C-1 4.34 -1 3.68 -1 3 C-0.34 3 0.32 3 1 3 C0.67 2.01 0.34 1.02 0 0 Z " fill="#531F20" transform="translate(440,507)"/>
<path d="M0 0 C0.66 0.33 1.32 0.66 2 1 C2.59355614 3.64860427 2.74209269 6.29197322 3 9 C2.67 8.34 2.34 7.68 2 7 C1.34 7 0.68 7 0 7 C-0.99 11.62 -1.98 16.24 -3 21 C-3.33 21 -3.66 21 -4 21 C-4.5939348 13.42733125 -2.43286286 7.12481267 0 0 Z " fill="#5C5B5C" transform="translate(369,453)"/>
<path d="M0 0 C0 3.96 0 7.92 0 12 C-0.66 12 -1.32 12 -2 12 C-2 9.03 -2 6.06 -2 3 C-4.31 3.66 -6.62 4.32 -9 5 C-4.22727273 0 -4.22727273 0 0 0 Z " fill="#ABAAAB" transform="translate(316,437)"/>
<path d="M0 0 C1.32 0 2.64 0 4 0 C4 2.97 4 5.94 4 9 C2.68 9 1.36 9 0 9 C0 6.03 0 3.06 0 0 Z " fill="#561F20" transform="translate(390,510)"/>
<path d="M0 0 C0.33 0 0.66 0 1 0 C1 1.65 1 3.3 1 5 C1.66 5 2.32 5 3 5 C2.57405412 6.44096586 2.13373367 7.87768712 1.6875 9.3125 C1.32205078 10.51326172 1.32205078 10.51326172 0.94921875 11.73828125 C-0.04182023 14.09964573 -1.08074943 15.33879993 -3 17 C-3 16.01 -3 15.02 -3 14 C-4.32 13.67 -5.64 13.34 -7 13 C-6.195625 12.690625 -5.39125 12.38125 -4.5625 12.0625 C-2.10919595 11.23664655 -2.10919595 11.23664655 -1 10 C-0.76712992 8.31816052 -0.58735834 6.6287584 -0.4375 4.9375 C-0.35371094 4.01839844 -0.26992188 3.09929687 -0.18359375 2.15234375 C-0.12300781 1.44207031 -0.06242187 0.73179687 0 0 Z " fill="#421F20" transform="translate(384,493)"/>
<path d="M0 0 C0 0.66 0 1.32 0 2 C2.31 2.66 4.62 3.32 7 4 C7 4.33 7 4.66 7 5 C2.38 5 -2.24 5 -7 5 C-6 2 -6 2 -4.0625 0.8125 C-2 0 -2 0 0 0 Z " fill="#A61F24" transform="translate(359,171)"/>
<path d="M0 0 C0.66 0 1.32 0 2 0 C2 3.96 2 7.92 2 12 C-1.96 11.67 -5.92 11.34 -10 11 C-10 10.67 -10 10.34 -10 10 C-6.7 10 -3.4 10 0 10 C0 6.7 0 3.4 0 0 Z " fill="#BBBABA" transform="translate(588,411)"/>
<path d="M0 0 C-0.66 1.32 -1.32 2.64 -2 4 C-2.66 4 -3.32 4 -4 4 C-4 11.26 -4 18.52 -4 26 C-4.33 26 -4.66 26 -5 26 C-5.086985 22.22931168 -5.14038579 18.45888068 -5.1875 14.6875 C-5.21263672 13.61564453 -5.23777344 12.54378906 -5.26367188 11.43945312 C-5.27333984 10.41142578 -5.28300781 9.38339844 -5.29296875 8.32421875 C-5.3086792 7.37635498 -5.32438965 6.42849121 -5.34057617 5.4519043 C-5 3 -5 3 -3.60668945 1.16723633 C-2 0 -2 0 0 0 Z " fill="#C52222" transform="translate(314,491)"/>
<path d="M0 0 C0.66 0 1.32 0 2 0 C2.99 3.63 3.98 7.26 5 11 C4.01 11.33 3.02 11.66 2 12 C-0.60018816 8.09971775 -0.15085514 4.52565431 0 0 Z " fill="#491F21" transform="translate(362,226)"/>
<path d="M0 0 C1.4540625 0.0309375 1.4540625 0.0309375 2.9375 0.0625 C1.9475 1.5475 1.9475 1.5475 0.9375 3.0625 C-0.0525 3.0625 -1.0425 3.0625 -2.0625 3.0625 C-2.0625 5.7025 -2.0625 8.3425 -2.0625 11.0625 C-3.0525 11.5575 -3.0525 11.5575 -4.0625 12.0625 C-4.08937279 10.25007948 -4.10883715 8.43754767 -4.125 6.625 C-4.13660156 5.61566406 -4.14820313 4.60632813 -4.16015625 3.56640625 C-4.01596662 -0.13061575 -3.76355726 0.07680729 0 0 Z " fill="#CC2323" transform="translate(392.0625,506.9375)"/>
<path d="M0 0 C0.66 0.99 1.32 1.98 2 3 C1.67 3.33 1.34 3.66 1 4 C0.76636119 5.84891946 0.58696365 7.70488031 0.4375 9.5625 C0.35371094 10.57441406 0.26992188 11.58632813 0.18359375 12.62890625 C0.12300781 13.41136719 0.06242187 14.19382812 0 15 C-0.33 15 -0.66 15 -1 15 C-1.33 13.35 -1.66 11.7 -2 10 C-2.66 10 -3.32 10 -4 10 C-2.99806563 6.20696275 -2.18975773 3.28463659 0 0 Z " fill="#481F1F" transform="translate(387,505)"/>
<path d="M0 0 C0.33 0 0.66 0 1 0 C1.05423638 1.91635217 1.09289963 3.83314925 1.125 5.75 C1.14820313 6.81734375 1.17140625 7.8846875 1.1953125 8.984375 C1.00161814 11.97501594 0.43686821 13.44057851 -1 16 C-1.16750414 18.66709069 -1.16750414 18.66709069 -1 21 C-2.5625 19.75 -2.5625 19.75 -4 18 C-3.71483972 14.9582904 -2.73969465 13.60954198 -1 11 C-0.54227937 8.26127045 -0.54227937 8.26127045 -0.375 5.3125 C-0.30023438 4.31863281 -0.22546875 3.32476562 -0.1484375 2.30078125 C-0.09945313 1.54152344 -0.05046875 0.78226562 0 0 Z " fill="#959495" transform="translate(491,424)"/>
<path d="M0 0 C0.66 0 1.32 0 2 0 C2 2.97 2 5.94 2 9 C1.01 9 0.02 9 -1 9 C-1.09765625 2.84765625 -1.09765625 2.84765625 -1 1 C-0.67 0.67 -0.34 0.34 0 0 Z " fill="#4B1F20" transform="translate(378,493)"/>
<path d="M0 0 C0 3.63 0 7.26 0 11 C-0.99 11 -1.98 11 -3 11 C-2.67 8.03 -2.34 5.06 -2 2 C-2.66 1.67 -3.32 1.34 -4 1 C-2 0 -2 0 0 0 Z " fill="#CAC9C9" transform="translate(530,438)"/>
<path d="M0 0 C0.66 0.33 1.32 0.66 2 1 C0.88121617 2.17262904 -0.24523051 3.33795138 -1.375 4.5 C-2.00148438 5.1496875 -2.62796875 5.799375 -3.2734375 6.46875 C-5 8 -5 8 -7 8 C-5.50902342 4.2047869 -3.24299151 2.38957269 0 0 Z " fill="#CA2025" transform="translate(335,286)"/>
<path d="M0 0 C0.66 0 1.32 0 2 0 C2.20086443 3.71599191 2.1519437 4.77208445 0 8 C-0.66 8.66 -1.32 9.32 -2 10 C-1.85950482 8.52031676 -1.71245174 7.04125484 -1.5625 5.5625 C-1.48128906 4.73878906 -1.40007812 3.91507812 -1.31640625 3.06640625 C-1 1 -1 1 0 0 Z " fill="#ADACAD" transform="translate(369,449)"/>
<path d="M0 0 C-0.33 0.99 -0.66 1.98 -1 3 C-3 3.75 -3 3.75 -5 4 C-5.33 3.67 -5.66 3.34 -6 3 C-7.32594105 2.63837971 -8.65938457 2.30271961 -10 2 C-6.38026598 0.68373308 -3.90432869 0 0 0 Z " fill="#851F23" transform="translate(363,191)"/>
<path d="M0 0 C0.33 0 0.66 0 1 0 C1.185625 1.7015625 1.185625 1.7015625 1.375 3.4375 C1.684375 5.2009375 1.684375 5.2009375 2 7 C2.66 7.33 3.32 7.66 4 8 C4 8.66 4 9.32 4 10 C2.35 9.67 0.7 9.34 -1 9 C-0.67 6.03 -0.34 3.06 0 0 Z " fill="#D22323" transform="translate(376,495)"/>
<path d="M0 0 C1.32 0 2.64 0 4 0 C4 1.65 4 3.3 4 5 C2.68 4.67 1.36 4.34 0 4 C0 2.68 0 1.36 0 0 Z " fill="#261F20" transform="translate(442,497)"/>
<path d="M0 0 C-1.52708963 3.43595166 -3.59927045 6.11912454 -6 9 C-5.38983051 3.50847458 -5.38983051 3.50847458 -3.5625 1.125 C-2 0 -2 0 0 0 Z " fill="#491E20" transform="translate(391,205)"/>
<path d="M0 0 C1.0326802 2.78823655 1.04509293 3.8677274 0.0625 6.75 C-0.288125 7.4925 -0.63875 8.235 -1 9 C-1.66 8.67 -2.32 8.34 -3 8 C-2.37240135 5.07120629 -1.41377341 2.63904371 0 0 Z " fill="#9F9E9E" transform="translate(360,435)"/>
<path d="M0 0 C0.66 0 1.32 0 2 0 C1.67 2.31 1.34 4.62 1 7 C0.34 7 -0.32 7 -1 7 C-0.67 4.69 -0.34 2.38 0 0 Z " fill="#4C4B4C" transform="translate(380,434)"/>
</svg>
